<svg width="778" height="759" viewBox="0 0 778 759" fill="none" xmlns="http://www.w3.org/2000/svg">
<path fill-rule="evenodd" clip-rule="evenodd" d="M693.846 12.6797C707.888 -2.99517 731.979 -4.31866 747.654 9.7236C763.328 23.7659 764.652 47.8564 750.61 63.5313L723.4 93.9048C804.82 192.72 792.046 335.867 702.238 420.204C619.302 498.088 543.556 488.033 377.733 419.105C240.651 362.123 188.778 355.236 138.455 402.494C73.0101 463.952 73.1608 566.022 131.37 628.008C189.831 690.26 291.029 696.936 356.884 635.092C380.141 613.252 400.216 581.05 415.357 546.112C423.057 528.345 445.02 519.001 463.959 523.034C486.735 527.885 500.037 550.601 491.094 572.103C471.88 618.297 445.111 661.67 411.491 693.241C319.424 779.7 181.724 777.01 92.2987 700.796L64.8851 727.878C49.9139 742.668 25.7875 742.521 10.9973 727.55C-3.79284 712.579 -3.64609 688.452 11.3251 673.662L42.8971 642.472C-12.6831 549.77 -1.48663 424.481 83.8472 344.345C166.783 266.46 242.53 276.516 408.352 345.444C545.434 402.426 597.308 409.313 647.631 362.055C709.883 303.594 716.559 202.397 654.715 136.541C592.871 70.686 491.454 70.9969 429.202 129.457C392.829 163.614 382.578 185.971 380.396 225.044C379.496 241.151 363.412 255.653 347.635 259.02C336.499 261.397 325.262 261.99 309.585 247.473C303.164 241.527 300.271 232.773 300.596 224.027C300.644 222.715 300.696 221.562 300.75 220.596C304.064 161.25 323.155 119.613 374.594 71.3079C453.747 -3.02345 574.736 -14.7665 666.35 43.372L693.846 12.6797Z" fill="url(#paint0_linear_75_10)"/>
<defs>
<linearGradient id="paint0_linear_75_10" x1="622" y1="4.12626e-05" x2="71" y2="814.5" gradientUnits="userSpaceOnUse">
<stop stop-color="#6C5FFF"/>
<stop offset="1" stop-color="#FF6769"/>
</linearGradient>
</defs>
</svg>
